<?xml version="1.0" encoding="UTF-8"?>
<svg version="1.1" viewBox="0 0 1989 1499" width="1280" height="1280" xmlns="http://www.w3.org/2000/svg">
<path transform="translate(0)" d="m0 0h1921l-1 2-5 1-52 3-13 2-22 2-19 3-11 1-7 2-20 3-20 4-28 5-16 3-2 1-13 2-14 3-11 2-16 3-11 3-10 2-13 3-12 3-9 2-15 4-17 4-21 6-20 5-13 4-17 5-16 5-9 2-8 3-17 5-8 3-16 5-7 3-15 5-10 4-15 5-10 4-12 4-12 5-9 3-12 5-26 10-10 5-10 4-9 4-10 4-41 19-20 9-16 8-17 8-19 10-16 8-11 6-16 9-8 4-18 10-16 9-15 9-11 6-25 15-11 7-10 6-16 10-17 11-30 20-35 24-13 10-9 6-11 8-19 14-13 10-15 12-6 4-7 6h-2v3l-6 3-13 11-12 9-10 9-11 9-14 13-9 7-14 12-13 12-9 7-9 9-8 7-12 12-8 7-71 71-7 8-12 12-7 8-10 11-9 11-7 7-7 9-9 10-8 10-8 8-9 11-10 12-14 18-8 10-3 5h-3l-2 5-9 11-12 16-10 14-10 13-7 10-10 14-13 18-11 16-16 24-7 11-11 17-7 10-5 9-3 5-11 17-12 20-7 12-18 32-14 25-11 20-6 11-8 16-9 17-3 7-12 24-7 16-10 20-3 8-5 11-7 16-5 11-8 19-6 15-5 11-3 9-5 11-4 11-7 20-6 14-2 8-6 15-4 13-4 10-2 8-6 16-2 9-3 9-3 8-4 15-1 2h-77z"/>
<path transform="translate(1888)" d="m0 0h33l-1 2-5 1-52 3-13 2-22 2-19 3-11 1-7 2-20 3-20 4-28 5-16 3-2 1-13 2-14 3-11 2-16 3-11 3-10 2-13 3-12 3-9 2-15 4-17 4-21 6-20 5-13 4-17 5-16 5-9 2-8 3-17 5-8 3-16 5-4 1 5-4 8-2 4-2 8-2 3-2 9-2 4-2 9-2 4-2 8-2 15-4 4-2 8-2 17-5 12-3 6-2 11-3 13-3 7-2 11-3 2-1 9-1 7-3 16-3 13-3 6-2 11-2 7-2 11-1 8-3 12-2 9-2 11-1 8-3 14-2 8-2 16-2 6-2 12-2 10-2 16-2 6-2 15-1 7-2 26-2 16-3 20-1 5-1z" fill="#FEFEFE"/>
<path transform="translate(1888)" d="m0 0h33l-1 2-5 1-52 3-13 2-22 2-16 2 2-2 7-2 26-2 16-3 20-1 5-1z" fill="#FEFEFE"/>
<path transform="translate(1888)" d="m0 0h33l-1 2-5 1-32 1 1-2z" fill="#FBFBFB"/>
<path transform="translate(568,650)" d="m0 0v3l-17 17-7 8-5 4 2-4 15-16z" fill="#FEFEFE"/>
</svg>
